<svg width="140" height="141" viewBox="0 0 140 141" fill="none" xmlns="http://www.w3.org/2000/svg">
<path d="M0 15.6506C0 7.007 7.007 0 15.6506 0H135.266C137.88 0 140 2.11962 140 4.7343V8.09917C140 12.5722 136.374 16.1983 131.901 16.1983H0.547776C0.245251 16.1983 0 15.9531 0 15.6506Z" fill="white"/>
<path d="M16.7697 0.00174646C17.0938 0.000781917 17.3574 0.262781 17.3583 0.586938L17.7474 131.321C17.7616 136.114 13.8878 140.011 9.09487 140.025L5.15085 140.037C2.53618 140.045 0.410269 137.931 0.402489 135.317L0.0498993 16.8213C0.0223408 7.55969 7.50803 0.0293049 16.7697 0.00174646Z" fill="white"/>
</svg>
